<?xml version="1.0" encoding="utf-8"?>

<!DOCTYPE svg PUBLIC "-//W3C//DTD SVG 1.1//EN" "http://www.w3.org/Graphics/SVG/1.1/DTD/svg11.dtd">
<!-- Uploaded to: SVG Repo, www.svgrepo.com, Generator: SVG Repo Mixer Tools -->
<svg height="800px" width="800px" version="1.1" id="_x32_" xmlns="http://www.w3.org/2000/svg" xmlns:xlink="http://www.w3.org/1999/xlink" 
	 viewBox="0 0 512 512"  xml:space="preserve">
<style type="text/css">
	.st0{fill:#000000;}
</style>
<g>
	<path class="st0" d="M505.822,141.442c-6.987-14.224-18.973-26.423-34.368-37.08c-23.162-15.953-54.417-28.598-91.228-37.5
		c-36.792-8.863-79.122-13.88-124.23-13.88C187.27,53.01,125.002,64.568,78.862,83.866c-23.07,9.709-42.181,21.322-56.117,35.083
		c-6.95,6.902-12.599,14.363-16.575,22.493c-3.958,8.102-6.178,16.901-6.17,25.931v177.254c-0.008,9.012,2.212,17.82,6.17,25.922
		c6.986,14.215,18.972,26.423,34.377,37.09c23.162,15.943,54.417,28.588,91.218,37.498c36.793,8.864,79.132,13.881,124.231,13.881
		c68.735-0.028,130.994-11.586,177.132-30.902c23.079-9.69,42.191-21.313,56.118-35.083c6.949-6.884,12.598-14.363,16.575-22.484
		c3.966-8.102,6.187-16.91,6.178-25.922V167.373C512.008,158.342,509.788,149.544,505.822,141.442z M67.463,126.623
		c6.308-4.72,13.704-8.744,21.666-12.376c7.962-3.623,16.472-6.829,24.853-9.607c16.808-5.547,32.872-9.318,43.166-10.814
		c6.634-0.938,12.785,3.661,13.723,10.304c0.948,6.624-3.651,12.775-10.286,13.713c-6.048,0.856-16.352,3.086-27.538,6.309
		c-11.205,3.205-23.469,7.433-33.838,12.181c-6.913,3.131-12.99,6.541-17.189,9.718c-5.37,4.005-12.97,2.927-16.984-2.434
		C61.014,138.255,62.102,130.645,67.463,126.623z M487.732,344.627c-0.009,5.091-1.199,10.071-3.726,15.283
		c-4.386,9.068-13.23,18.731-26.34,27.743c-19.604,13.565-48.434,25.541-83.126,33.876c-34.693,8.38-75.257,13.22-118.544,13.22
		c-65.938,0.028-125.623-11.307-167.75-29.006c-21.053-8.808-37.656-19.233-48.406-29.936c-5.389-5.332-9.328-10.713-11.856-15.897
		c-2.527-5.212-3.716-10.192-3.716-15.283V320.07c4.85,4.636,10.294,9.003,16.278,13.146c23.162,15.944,54.417,28.598,91.218,37.498
		c36.793,8.864,79.132,13.881,124.231,13.881c68.735-0.018,130.994-11.585,177.132-30.902c22.28-9.356,40.806-20.515,54.604-33.661
		V344.627z M487.732,270.196c-0.009,5.1-1.199,10.099-3.726,15.293c-4.386,9.069-13.23,18.74-26.34,27.752
		c-19.604,13.565-48.434,25.542-83.126,33.894c-34.693,8.362-75.257,13.203-118.544,13.203
		c-65.938,0.028-125.623-11.316-167.75-29.016c-21.053-8.808-37.656-19.232-48.406-29.926c-5.389-5.342-9.328-10.721-11.856-15.906
		c-2.527-5.194-3.716-10.192-3.716-15.293V265.3c2.277,0.558,4.646,0.892,7.08,0.892c16.574,0,30.01-13.425,30.01-30.01V225.59
		c0.008-4.18,1.672-7.878,4.412-10.647c2.751-2.731,6.449-4.394,10.629-4.394c4.19,0,7.888,1.663,10.648,4.394
		c2.74,2.769,4.394,6.467,4.403,10.647v37.322c0.01,19.056,15.433,34.461,34.461,34.469c19.038-0.008,34.461-15.414,34.47-34.469
		V247.87c0-4.19,1.663-7.879,4.403-10.638c2.75-2.732,6.448-4.404,10.638-4.404s7.888,1.672,10.639,4.404
		c2.731,2.759,4.404,6.448,4.404,10.638v45.154c0.018,20.236,16.398,36.625,36.634,36.625c20.226-0.008,36.616-16.389,36.625-36.625
		v-26.089c0-4.784,1.904-9.04,5.044-12.18c3.14-3.141,7.386-5.036,12.162-5.045c4.794,0.009,9.031,1.904,12.18,5.045
		c3.122,3.149,5.036,7.395,5.036,12.18v10.927c0.019,19.038,15.433,34.451,34.461,34.451c19.037,0,34.46-15.414,34.46-34.451
		v-23.506v-11.15c0.018-4.784,1.914-9.012,5.044-12.162c3.15-3.131,7.387-5.036,12.181-5.036c4.776,0,9.022,1.904,12.171,5.036
		c3.122,3.149,5.036,7.377,5.036,12.162v15.516c0.009,17.356,14.057,31.412,31.404,31.412c17.356,0,31.404-14.057,31.422-31.412
		v-15.247v-29.702c0-3.336,1.32-6.263,3.494-8.446c2.202-2.184,5.129-3.513,8.455-3.513c3.326,0,6.262,1.329,8.455,3.513
		c1.43,1.439,2.443,3.223,3,5.212V270.196z"/>
</g>
</svg>