<?xml version="1.0" encoding="utf-8"?>

<!DOCTYPE svg PUBLIC "-//W3C//DTD SVG 1.1//EN" "http://www.w3.org/Graphics/SVG/1.1/DTD/svg11.dtd">
<!-- Uploaded to: SVG Repo, www.svgrepo.com, Generator: SVG Repo Mixer Tools -->
<svg height="800px" width="800px" version="1.1" id="_x32_" xmlns="http://www.w3.org/2000/svg" xmlns:xlink="http://www.w3.org/1999/xlink" 
	 viewBox="0 0 512 512"  xml:space="preserve">
<style type="text/css">
	.st0{fill:#000000;}
</style>
<g>
	<path class="st0" d="M511.334,242.769c-21.656-77.603-58.086-124.259-89.753-150.968c-31.645-26.764-58.097-33.71-60.032-34.194
		l-6.216-1.559L43.022,203.983C16.753,216.447,0,242.909,0,271.984v142.484c0.011,22.914,18.57,41.463,41.484,41.484h429.032
		c22.914-0.021,41.474-18.57,41.484-41.484V245.124L511.334,242.769z M476.28,414.467c0,3.172-2.592,5.764-5.764,5.764H41.484
		c-3.172,0-5.763-2.592-5.763-5.764v-40.666H476.28V414.467z M476.28,349.984H35.721v-42.86H476.28V349.984z"/>
</g>
</svg>